<svg xmlns="http://www.w3.org/2000/svg" xmlns:xlink="http://www.w3.org/1999/xlink" width="80" zoomAndPan="magnify" viewBox="0 0 60 60" height="80" preserveAspectRatio="xMidYMid meet" version="1.2"><defs><clipPath id="c487add527"><path d="M 0.550781 0 L 59.800781 0 L 59.800781 60 L 0.550781 60 Z M 0.550781 0 "/></clipPath></defs><g id="d4fb35a5c6"><g clip-rule="nonzero" clip-path="url(#c487add527)"><path style=" stroke:none;fill-rule:nonzero;fill:#1c0140;fill-opacity:1;" d="M 59.332031 37.421875 L 55.546875 44.53125 C 55.265625 45.0625 54.96875 45.582031 54.65625 46.09375 C 54.34375 46.605469 54.011719 47.105469 53.667969 47.597656 C 53.324219 48.089844 52.964844 48.570312 52.589844 49.039062 C 52.214844 49.507812 51.828125 49.964844 51.425781 50.40625 C 51.023438 50.851562 50.605469 51.285156 50.179688 51.703125 C 49.75 52.125 49.308594 52.527344 48.851562 52.921875 C 48.398438 53.3125 47.933594 53.6875 47.453125 54.050781 C 46.976562 54.414062 46.488281 54.761719 45.988281 55.097656 C 45.488281 55.429688 44.980469 55.746094 44.460938 56.046875 C 43.945312 56.347656 43.417969 56.632812 42.878906 56.902344 C 42.34375 57.171875 41.800781 57.421875 41.246094 57.65625 C 40.695312 57.890625 40.136719 58.109375 39.570312 58.308594 C 39.003906 58.511719 38.433594 58.695312 37.859375 58.859375 C 37.28125 59.023438 36.699219 59.171875 36.113281 59.300781 C 35.527344 59.429688 34.9375 59.539062 34.347656 59.632812 C 33.753906 59.726562 33.160156 59.800781 32.5625 59.855469 C 31.964844 59.910156 31.367188 59.949219 30.765625 59.96875 C 30.167969 59.988281 29.566406 59.988281 28.96875 59.96875 C 28.367188 59.949219 27.769531 59.914062 27.171875 59.859375 C 26.574219 59.804688 25.980469 59.730469 25.386719 59.636719 C 24.792969 59.546875 24.203125 59.4375 23.617188 59.308594 C 23.03125 59.179688 22.449219 59.03125 21.875 58.867188 C 21.296875 58.703125 20.726562 58.523438 20.160156 58.320312 C 19.59375 58.121094 19.035156 57.90625 18.484375 57.671875 C 17.929688 57.4375 17.386719 57.183594 16.847656 56.917969 C 16.3125 56.648438 15.785156 56.363281 15.265625 56.0625 C 14.746094 55.761719 14.238281 55.445312 13.738281 55.113281 C 13.238281 54.78125 12.75 54.433594 12.269531 54.074219 C 11.792969 53.710938 11.328125 53.332031 10.871094 52.941406 C 10.417969 52.550781 9.976562 52.144531 9.546875 51.726562 C 9.117188 51.308594 8.699219 50.878906 8.296875 50.433594 C 7.894531 49.988281 7.503906 49.53125 7.128906 49.0625 C 6.753906 48.597656 6.394531 48.117188 6.050781 47.625 C 5.703125 47.136719 5.375 46.632812 5.058594 46.121094 C 4.746094 45.613281 4.449219 45.089844 4.164062 44.5625 C 3.882812 44.03125 3.617188 43.496094 3.371094 42.949219 C 3.121094 42.402344 2.890625 41.851562 2.675781 41.289062 C 2.460938 40.730469 2.261719 40.164062 2.082031 39.589844 C 1.902344 39.019531 1.742188 38.441406 1.597656 37.859375 C 1.453125 37.277344 1.328125 36.691406 1.222656 36.101562 C 1.113281 35.507812 1.023438 34.917969 0.953125 34.320312 C 0.882812 33.726562 0.832031 33.128906 0.796875 32.527344 C 0.761719 31.929688 0.746094 31.332031 0.75 30.730469 C 0.753906 30.128906 0.777344 29.53125 0.816406 28.933594 C 0.855469 28.335938 0.914062 27.738281 0.992188 27.144531 C 1.070312 26.546875 1.164062 25.957031 1.277344 25.367188 C 1.390625 24.777344 1.523438 24.191406 1.671875 23.613281 C 1.824219 23.03125 1.992188 22.457031 2.175781 21.886719 C 2.363281 21.3125 2.566406 20.75 2.785156 20.191406 C 3.007812 19.632812 3.242188 19.082031 3.496094 18.539062 C 3.753906 17.996094 4.023438 17.460938 4.3125 16.9375 C 4.597656 16.410156 4.902344 15.890625 5.222656 15.382812 C 5.542969 14.875 5.875 14.378906 6.226562 13.890625 C 6.578125 13.40625 6.941406 12.929688 7.320312 12.464844 C 7.703125 12 8.09375 11.546875 8.503906 11.109375 C 8.910156 10.667969 9.332031 10.242188 9.765625 9.828125 C 10.199219 9.414062 10.644531 9.011719 11.105469 8.625 C 11.5625 8.238281 12.035156 7.867188 12.515625 7.511719 C 12.996094 7.152344 13.488281 6.8125 13.992188 6.484375 C 14.496094 6.15625 15.007812 5.847656 15.53125 5.550781 C 16.054688 5.257812 16.585938 4.976562 17.125 4.714844 C 17.664062 4.453125 18.210938 4.207031 18.765625 3.980469 C 19.320312 3.75 19.878906 3.539062 20.449219 3.34375 C 21.015625 3.152344 21.589844 2.976562 22.167969 2.816406 L 29.859375 0.738281 L 24.164062 6.308594 C 23.363281 7.101562 22.625 7.949219 21.949219 8.851562 C 21.273438 9.753906 20.664062 10.699219 20.128906 11.691406 C 19.59375 12.683594 19.132812 13.707031 18.75 14.765625 C 18.363281 15.828125 18.0625 16.910156 17.835938 18.011719 C 17.613281 19.117188 17.46875 20.234375 17.410156 21.359375 C 17.351562 22.484375 17.375 23.609375 17.484375 24.730469 C 17.589844 25.851562 17.777344 26.960938 18.050781 28.054688 C 18.320312 29.148438 18.667969 30.214844 19.097656 31.257812 C 19.527344 32.300781 20.03125 33.304688 20.605469 34.273438 C 21.183594 35.242188 21.828125 36.164062 22.542969 37.035156 C 23.257812 37.90625 24.03125 38.722656 24.863281 39.480469 C 25.699219 40.238281 26.582031 40.933594 27.519531 41.558594 C 28.457031 42.1875 29.433594 42.742188 30.453125 43.222656 C 31.472656 43.707031 32.519531 44.113281 33.597656 44.4375 C 34.675781 44.765625 35.773438 45.011719 36.886719 45.179688 C 38.003906 45.34375 39.125 45.425781 40.25 45.425781 C 42.441406 45.433594 44.585938 45.132812 46.6875 44.515625 C 48.789062 43.898438 50.757812 43 52.597656 41.808594 Z M 59.332031 37.421875 "/></g></g></svg>