<svg xmlns="http://www.w3.org/2000/svg" xmlns:xlink="http://www.w3.org/1999/xlink" width="80" zoomAndPan="magnify" viewBox="0 0 60 60" height="80" preserveAspectRatio="xMidYMid meet" version="1.2"><g id="734d7fddc2"><path style=" stroke:none;fill-rule:nonzero;fill:#f1f1f1;fill-opacity:1;" d="M 30.015625 12.125 C 39.894531 12.125 47.910156 20.140625 47.910156 30.015625 C 47.910156 39.894531 39.894531 47.910156 30.015625 47.910156 C 20.140625 47.910156 12.125 39.894531 12.125 30.015625 C 12.125 20.140625 20.140625 12.125 30.015625 12.125 Z M 30.015625 12.125 "/><path style=" stroke:none;fill-rule:nonzero;fill:#f1f1f1;fill-opacity:1;" d="M 31.421875 1.40625 C 31.421875 0.632812 30.789062 0 30.015625 0 C 29.246094 0 28.613281 0.632812 28.613281 1.40625 L 28.613281 8.894531 C 28.613281 9.667969 29.246094 10.296875 30.015625 10.296875 C 30.789062 10.296875 31.421875 9.667969 31.421875 8.894531 Z M 31.421875 1.40625 "/><path style=" stroke:none;fill-rule:nonzero;fill:#f1f1f1;fill-opacity:1;" d="M 45.519531 5.941406 C 45.90625 5.273438 45.660156 4.429688 44.992188 4.042969 C 44.324219 3.65625 43.480469 3.867188 43.09375 4.535156 L 39.367188 11 C 38.980469 11.667969 39.191406 12.546875 39.859375 12.933594 C 40.527344 13.320312 41.40625 13.074219 41.792969 12.40625 Z M 45.519531 5.941406 "/><path style=" stroke:none;fill-rule:nonzero;fill:#f1f1f1;fill-opacity:1;" d="M 55.464844 16.941406 C 56.132812 16.554688 56.378906 15.675781 55.992188 15.007812 C 55.605469 14.339844 54.726562 14.128906 54.058594 14.480469 L 47.59375 18.242188 C 46.925781 18.628906 46.714844 19.472656 47.101562 20.140625 C 47.488281 20.808594 48.332031 21.054688 49 20.667969 Z M 55.464844 16.941406 "/><path style=" stroke:none;fill-rule:nonzero;fill:#f1f1f1;fill-opacity:1;" d="M 58.59375 31.421875 C 59.367188 31.421875 60 30.789062 60 30.015625 C 60 29.246094 59.367188 28.613281 58.59375 28.613281 L 51.140625 28.613281 C 50.367188 28.613281 49.738281 29.246094 49.738281 30.015625 C 49.738281 30.789062 50.367188 31.421875 51.140625 31.421875 Z M 58.59375 31.421875 "/><path style=" stroke:none;fill-rule:nonzero;fill:#f1f1f1;fill-opacity:1;" d="M 54.058594 45.519531 C 54.726562 45.90625 55.605469 45.660156 55.992188 44.992188 C 56.378906 44.324219 56.132812 43.480469 55.464844 43.09375 L 49 39.367188 C 48.332031 38.980469 47.488281 39.191406 47.101562 39.859375 C 46.714844 40.527344 46.925781 41.40625 47.59375 41.792969 Z M 54.058594 45.519531 "/><path style=" stroke:none;fill-rule:nonzero;fill:#f1f1f1;fill-opacity:1;" d="M 43.09375 55.464844 C 43.480469 56.132812 44.324219 56.378906 44.992188 55.992188 C 45.660156 55.605469 45.90625 54.726562 45.519531 54.058594 L 41.792969 47.59375 C 41.40625 46.925781 40.527344 46.714844 39.859375 47.101562 C 39.191406 47.488281 38.980469 48.332031 39.367188 49 Z M 43.09375 55.464844 "/><path style=" stroke:none;fill-rule:nonzero;fill:#f1f1f1;fill-opacity:1;" d="M 28.613281 58.59375 C 28.613281 59.367188 29.246094 60 30.015625 60 C 30.789062 60 31.421875 59.367188 31.421875 58.59375 L 31.421875 51.140625 C 31.421875 50.367188 30.789062 49.738281 30.015625 49.738281 C 29.246094 49.738281 28.613281 50.367188 28.613281 51.140625 Z M 28.613281 58.59375 "/><path style=" stroke:none;fill-rule:nonzero;fill:#f1f1f1;fill-opacity:1;" d="M 14.480469 54.058594 C 14.128906 54.726562 14.339844 55.605469 15.007812 55.992188 C 15.675781 56.378906 16.554688 56.132812 16.941406 55.464844 L 20.667969 49 C 21.054688 48.332031 20.808594 47.488281 20.140625 47.101562 C 19.472656 46.714844 18.628906 46.925781 18.242188 47.59375 Z M 14.480469 54.058594 "/><path style=" stroke:none;fill-rule:nonzero;fill:#f1f1f1;fill-opacity:1;" d="M 4.535156 43.09375 C 3.867188 43.480469 3.65625 44.324219 4.042969 44.992188 C 4.429688 45.660156 5.273438 45.90625 5.941406 45.519531 L 12.40625 41.792969 C 13.074219 41.40625 13.320312 40.527344 12.933594 39.859375 C 12.546875 39.191406 11.667969 38.980469 11 39.367188 Z M 4.535156 43.09375 "/><path style=" stroke:none;fill-rule:nonzero;fill:#f1f1f1;fill-opacity:1;" d="M 1.40625 28.613281 C 0.632812 28.613281 0 29.246094 0 30.015625 C 0 30.789062 0.632812 31.421875 1.40625 31.421875 L 8.894531 31.421875 C 9.667969 31.421875 10.296875 30.789062 10.296875 30.015625 C 10.296875 29.246094 9.667969 28.613281 8.894531 28.613281 Z M 1.40625 28.613281 "/><path style=" stroke:none;fill-rule:nonzero;fill:#f1f1f1;fill-opacity:1;" d="M 5.941406 14.480469 C 5.273438 14.128906 4.429688 14.339844 4.042969 15.007812 C 3.65625 15.675781 3.867188 16.554688 4.535156 16.941406 L 11 20.667969 C 11.667969 21.054688 12.546875 20.808594 12.933594 20.140625 C 13.320312 19.472656 13.074219 18.628906 12.40625 18.242188 Z M 5.941406 14.480469 "/><path style=" stroke:none;fill-rule:nonzero;fill:#f1f1f1;fill-opacity:1;" d="M 16.941406 4.535156 C 16.554688 3.867188 15.675781 3.65625 15.007812 4.042969 C 14.339844 4.429688 14.128906 5.273438 14.480469 5.941406 L 18.242188 12.40625 C 18.628906 13.074219 19.472656 13.320312 20.140625 12.933594 C 20.808594 12.546875 21.054688 11.667969 20.667969 11 Z M 16.941406 4.535156 "/></g></svg>